Love for All and Sharing is the first step to solving all the problems of humanity.

Websites I want to share.

    
http://www.shareintl.org/

    
http://www.lightmiddleway.com


Thank you very much

No credit for me...credit to EVERYONE for sharing
 
http://thepiratebay.org/user/raymondhome/

PLOT
The MacManus brothers are living a quiet life in Ireland with their father, but when they learn their beloved priest has been killed by mob forces, the duo return to Boston to bring justice to those responsible.

Duration                         : 1h 57mn
Video
Format                           : MPEG-4 Visual
Format profile                   : Streaming Video@L1
Format settings, BVOP            : Yes
Format settings, QPel            : No
Format settings, GMC             : No warppoints
Format settings, Matrix          : Custom
Codec ID                         : XVID
Codec ID/Hint                    : XviD
Duration                         : 1h 57mn
Bit rate                         : 1 993 Kbps
Width                            : 640 pixels
Height                           : 320 pixels
Display aspect ratio             : 2.000
Frame rate                       : 29.970 fps
Resolution                       : 24 bits
Colorimetry                      : 4:2:0
Scan type                        : Progressive
Bits/(Pixel*Frame)               : 0.325
Stream size                      : 1.63 GiB (91%)
Writing library                  : XviD 1.2.1 (UTC 2008-12-04)
Audio
Format                           : MPEG Audio
Format version                   : Version 1
Format profile                   : Layer 2
Codec ID                         : 50
Codec ID/Hint                    : MP1
Duration                         : 1h 43mn
Bit rate mode                    : Constant
Bit rate                         : 224 Kbps
Channel(s)                       : 2 channels
Sampling rate                    : 48.0 KHz
Resolution                       : 16 bits
Stream size                      : 165 MiB (9%)
Alignment                        : Aligned on interleaves
Interleave, duration             : 27 ms (0.82 video frame)
Interleave, preload duration     : 192 ms
Title                            : audio

Voltage NOTES
Source........::: SilentNinja and Mr H [Thanks bro's]
Encoder.......::: BMB
Notes.........::: ok ive done a shit load of work on this release, fixing colors sharpness, noise, even used a dehaloer to clean the edges of it was a really really big encode i done heaps of shit some stuff not mentioned here, ive done the best to level colors out and clean it up, spent 19 hours encoding so let me no what you think

credit Voltage & to all the people who made it possible for me to share this with everyone

*****help what we can with haiti...the world is ONE big family*****